# xmcd
#
# Track frame offsets:
#	150
#	605
#	24991
#	46663
#	71076
#	93405
#	114557
#	137434
#	159445
#	180394
#	199457
#	222356
#	246870
#	266168
#	295356
#
# Disc length: 4207 seconds
#
# Revision: 1
# Processed by: cddbd v1.5.2PL0 Copyright (c) Steve Scherf et al.
# Submitted via: audiograbber 1.83.01
#
DISCID=d4106d0f
DTITLE=Per Olov Enquist - Boken om Blanche och Marie - CD-BOK 05/07
DYEAR=1900
DGENRE=
TTITLE0=01 - 05
TTITLE1=02 - 05
TTITLE2=03 - 05
TTITLE3=04 - 05
TTITLE4=05 - 05
TTITLE5=06 - 05
TTITLE6=07 - 05
TTITLE7=08 - 05
TTITLE8=09 - 05
TTITLE9=10 - 05
TTITLE10=11 - 05
TTITLE11=12 - 05
TTITLE12=13 - 05
TTITLE13=14 - 05
TTITLE14=15 - 05
EXTD=
EXTT0=
EXTT1=
EXTT2=
EXTT3=
EXTT4=
EXTT5=
EXTT6=
EXTT7=
EXTT8=
EXTT9=
EXTT10=
EXTT11=
EXTT12=
EXTT13=
EXTT14=
PLAYORDER=
